<?xml version="1.0" encoding="UTF-8"?>
<svg width="510px" height="129px" viewBox="0 0 510 129" version="1.1" xmlns="http://www.w3.org/2000/svg" xmlns:xlink="http://www.w3.org/1999/xlink">
    <title>Group</title>
    <g id="Page-1" stroke="none" stroke-width="1" fill="none" fill-rule="evenodd">
        <g id="Artboard" transform="translate(-158.000000, -16.000000)">
            <g id="Group" transform="translate(158.000000, 16.000000)">
                <g id="Logo" transform="translate(320.000000, 26.000000)">
                    <path d="M20.256,36.238 C25.492,36.238 28.518,33.518 28.518,28.894 C28.518,25.222 26.75,22.978 23.282,22.264 C26.206,21.312 27.6,19.408 27.6,16.178 C27.6,12.098 24.778,9.752 19.882,9.752 L11.858,9.752 C9.444,9.752 8.424,10.806 8.424,13.424 L8.424,32.6 C8.424,35.184 9.444,36.238 11.858,36.238 L20.256,36.238 Z M19.712,20.938 L11.586,20.938 L11.586,13.662 C11.586,12.982 11.926,12.574 12.572,12.574 L19.644,12.574 C22.738,12.574 24.336,13.934 24.336,16.586 C24.336,19.306 22.636,20.938 19.712,20.938 Z M19.882,33.416 L12.674,33.416 C11.926,33.416 11.586,33.042 11.586,32.294 L11.586,23.726 L19.814,23.726 C23.282,23.726 25.152,25.392 25.152,28.588 C25.152,31.716 23.316,33.416 19.882,33.416 Z M40.52,36.748 C44.94,36.748 46.912,34.504 48,32.26 C48.136,32.056 48.17,31.852 48.17,31.648 C48.17,31.036 47.694,30.628 47.116,30.458 C46.878,30.39 46.64,30.322 46.402,30.322 C45.926,30.322 45.484,30.56 45.178,31.172 C44.362,32.974 43.002,34.198 40.554,34.198 C36.882,34.198 34.808,31.58 34.74,27.398 L46.708,27.398 C47.762,27.398 48.408,26.752 48.408,25.528 L48.408,25.256 L48.408,25.256 C48.068,20.802 45.28,16.926 40.316,16.926 C34.774,16.926 31.714,21.04 31.714,26.922 C31.714,32.804 34.944,36.748 40.52,36.748 Z M44.804,24.916 L34.842,24.916 C35.284,21.584 37.052,19.408 40.316,19.408 C43.444,19.408 44.906,21.89 45.314,24.304 L45.314,24.474 L45.314,24.474 C45.314,24.78 45.178,24.916 44.804,24.916 Z M57.214,36.714 C60.58,36.714 62.382,35.388 63.674,33.926 C63.708,34.606 63.776,35.218 63.878,35.626 C64.014,36.238 64.626,36.442 65.306,36.442 L65.612,36.442 L65.612,36.442 C66.462,36.374 66.972,35.898 66.972,35.354 C66.972,35.252 66.938,35.116 66.904,35.014 C66.7,34.368 66.53,33.212 66.53,32.022 L66.53,22.74 C66.53,18.728 64.286,16.926 59.73,16.926 C56.976,16.926 55.446,17.504 54.256,18.422 C53.474,19.034 52.59,20.02 52.25,21.074 C52.216,21.21 52.182,21.346 52.182,21.482 C52.182,22.094 52.658,22.57 53.304,22.774 C53.542,22.876 53.814,22.91 54.086,22.91 C54.664,22.91 55.174,22.672 55.412,22.026 C55.99,20.462 57.214,19.51 59.696,19.51 C62.382,19.51 63.606,20.496 63.606,22.74 L63.606,24.202 C59.968,24.27 58.2,24.474 56.33,24.984 C53.1,25.868 51.196,27.908 51.196,31.104 C51.196,34.606 53.474,36.714 57.214,36.714 Z M57.724,34.096 C55.684,34.096 54.324,32.906 54.324,31.138 C54.324,29.506 55.038,28.452 56.398,27.772 C57.758,27.092 59.628,26.752 63.606,26.65 L63.606,28.928 C63.606,30.22 63.368,30.866 62.722,31.682 C61.634,33.042 59.866,34.096 57.724,34.096 Z M77.716,36.748 C81.116,36.748 83.088,35.014 84.142,32.634 C84.04,33.178 83.938,33.858 83.938,34.232 L83.938,35.184 C83.938,36.034 84.584,36.442 85.502,36.442 C86.386,36.442 86.998,36 86.998,35.082 L86.998,18.558 C86.998,17.64 86.352,17.198 85.468,17.198 C84.55,17.198 83.904,17.64 83.904,18.558 L83.904,28.01 C83.904,29.336 83.564,30.39 82.748,31.546 C81.592,33.144 80.13,33.994 78.328,33.994 C75.812,33.994 74.622,32.362 74.622,29.438 L74.622,18.558 C74.622,17.64 73.976,17.198 73.058,17.198 C72.14,17.198 71.494,17.64 71.494,18.558 L71.494,30.084 C71.494,34.232 73.704,36.748 77.716,36.748 Z M98.728,36.714 C100.19,36.714 101.108,36.442 102.094,35.966 C102.604,35.694 102.808,35.218 102.808,34.742 C102.808,34.504 102.774,34.232 102.672,33.994 C102.468,33.484 102.06,33.11 101.55,33.11 C101.346,33.11 101.142,33.178 100.938,33.28 C100.36,33.62 99.782,33.858 98.932,33.858 C97.674,33.858 96.96,33.144 96.96,31.478 L96.96,20.088 L101.312,20.088 C102.128,20.088 102.57,19.544 102.57,18.762 C102.57,17.946 102.162,17.402 101.312,17.402 L96.96,17.402 L96.96,13.288 C96.96,12.404 96.314,11.928 95.43,11.928 C94.478,11.928 93.9,12.404 93.9,13.288 L93.9,17.402 L91.282,17.402 C90.432,17.402 90.058,17.98 90.058,18.762 C90.058,19.544 90.432,20.088 91.248,20.088 L93.9,20.088 L93.9,31.75 C93.9,35.32 95.94,36.714 98.728,36.714 Z M107.16,14.104 C108.418,14.104 109.438,13.118 109.438,11.792 C109.438,10.5 108.418,9.514 107.16,9.514 C105.868,9.514 104.848,10.5 104.848,11.792 C104.848,13.118 105.868,14.104 107.16,14.104 Z M107.126,36.442 C108.044,36.442 108.69,36 108.69,35.082 L108.69,18.524 C108.69,17.64 108.044,17.198 107.126,17.198 C106.174,17.198 105.596,17.64 105.596,18.524 L105.596,35.082 C105.596,36 106.174,36.442 107.126,36.442 Z M121.27,36.782 C125.894,36.782 127.696,34.334 128.614,31.988 C128.716,31.75 128.75,31.58 128.75,31.376 C128.75,30.764 128.274,30.356 127.662,30.22 C127.424,30.118 127.186,30.084 126.948,30.084 C126.404,30.084 125.928,30.356 125.69,31.002 C125.044,32.838 123.99,34.13 121.338,34.13 C117.734,34.13 115.83,31.308 115.83,26.854 C115.83,22.536 117.768,19.544 121.304,19.544 C123.888,19.544 124.908,20.87 125.554,22.604 C125.792,23.182 126.234,23.386 126.744,23.386 C126.982,23.386 127.254,23.352 127.492,23.284 C128.002,23.08 128.512,22.672 128.512,22.026 C128.512,21.89 128.478,21.686 128.41,21.516 C127.56,19.374 125.724,16.892 121.236,16.892 C115.66,16.892 112.668,21.074 112.668,26.888 C112.668,32.736 115.762,36.782 121.27,36.782 Z M133.952,14.104 C135.21,14.104 136.23,13.118 136.23,11.792 C136.23,10.5 135.21,9.514 133.952,9.514 C132.66,9.514 131.64,10.5 131.64,11.792 C131.64,13.118 132.66,14.104 133.952,14.104 Z M133.918,36.442 C134.836,36.442 135.482,36 135.482,35.082 L135.482,18.524 C135.482,17.64 134.836,17.198 133.918,17.198 C132.966,17.198 132.388,17.64 132.388,18.524 L132.388,35.082 C132.388,36 132.966,36.442 133.918,36.442 Z M145.444,36.714 C148.81,36.714 150.612,35.388 151.904,33.926 C151.938,34.606 152.006,35.218 152.108,35.626 C152.244,36.238 152.856,36.442 153.536,36.442 L153.842,36.442 L153.842,36.442 C154.692,36.374 155.202,35.898 155.202,35.354 C155.202,35.252 155.168,35.116 155.134,35.014 C154.93,34.368 154.76,33.212 154.76,32.022 L154.76,22.74 C154.76,18.728 152.516,16.926 147.96,16.926 C145.206,16.926 143.676,17.504 142.486,18.422 C141.704,19.034 140.82,20.02 140.48,21.074 C140.446,21.21 140.412,21.346 140.412,21.482 C140.412,22.094 140.888,22.57 141.534,22.774 C141.772,22.876 142.044,22.91 142.316,22.91 C142.894,22.91 143.404,22.672 143.642,22.026 C144.22,20.462 145.444,19.51 147.926,19.51 C150.612,19.51 151.836,20.496 151.836,22.74 L151.836,24.202 C148.198,24.27 146.43,24.474 144.56,24.984 C141.33,25.868 139.426,27.908 139.426,31.104 C139.426,34.606 141.704,36.714 145.444,36.714 Z M145.954,34.096 C143.914,34.096 142.554,32.906 142.554,31.138 C142.554,29.506 143.268,28.452 144.628,27.772 C145.988,27.092 147.858,26.752 151.836,26.65 L151.836,28.928 C151.836,30.22 151.598,30.866 150.952,31.682 C149.864,33.042 148.096,34.096 145.954,34.096 Z M173.902,36.442 C174.786,36.442 175.466,36 175.466,35.082 L175.466,23.556 C175.466,19.374 173.29,16.926 169.244,16.926 C166.014,16.926 163.974,18.456 162.784,20.87 C162.818,20.224 162.92,19.884 162.92,19.442 L162.92,18.524 C162.92,17.64 162.308,17.198 161.424,17.198 C160.472,17.198 159.826,17.64 159.826,18.524 L159.826,35.082 C159.826,36 160.438,36.442 161.39,36.442 C162.274,36.442 162.92,36 162.92,35.082 L162.92,25.562 C162.92,24.236 163.26,23.25 164.11,22.094 C165.266,20.496 166.796,19.68 168.632,19.68 C171.182,19.68 172.338,21.312 172.338,24.202 L172.338,35.082 C172.338,36 172.984,36.442 173.902,36.442 Z M20.256,72.238 C25.492,72.238 28.518,69.518 28.518,64.894 C28.518,61.222 26.75,58.978 23.282,58.264 C26.206,57.312 27.6,55.408 27.6,52.178 C27.6,48.098 24.778,45.752 19.882,45.752 L11.858,45.752 C9.444,45.752 8.424,46.806 8.424,49.424 L8.424,68.6 C8.424,71.184 9.444,72.238 11.858,72.238 L20.256,72.238 Z M19.712,56.938 L11.586,56.938 L11.586,49.662 C11.586,48.982 11.926,48.574 12.572,48.574 L19.644,48.574 C22.738,48.574 24.336,49.934 24.336,52.586 C24.336,55.306 22.636,56.938 19.712,56.938 Z M19.882,69.416 L12.674,69.416 C11.926,69.416 11.586,69.042 11.586,68.294 L11.586,59.726 L19.814,59.726 C23.282,59.726 25.152,61.392 25.152,64.588 C25.152,67.716 23.316,69.416 19.882,69.416 Z M34.128,72.442 C35.046,72.442 35.658,72 35.658,71.082 L35.658,46.908 C35.658,45.99 35.046,45.548 34.128,45.548 C33.176,45.548 32.564,45.99 32.564,46.908 L32.564,71.082 C32.564,72 33.176,72.442 34.128,72.442 Z M48.51,72.782 C53.814,72.782 57.078,68.702 57.078,62.786 C57.078,56.87 53.882,52.926 48.442,52.926 C42.934,52.926 39.636,56.904 39.636,62.786 C39.636,68.838 42.9,72.782 48.51,72.782 Z M48.306,70.164 C44.804,70.164 42.764,67.206 42.764,62.888 C42.764,58.366 44.872,55.544 48.544,55.544 C52.012,55.544 53.95,58.468 53.95,62.752 C53.95,67.274 52.012,70.164 48.306,70.164 Z M68.57,79.888 C73.058,79.888 77.172,78.12 77.172,70.3 L77.172,54.558 C77.172,53.64 76.628,53.198 75.71,53.198 C74.724,53.198 74.248,53.708 74.248,54.422 L74.248,55.442 C74.248,55.816 74.35,56.462 74.384,56.836 C73.432,54.66 71.494,52.96 68.4,52.96 C63.164,52.96 60.138,56.904 60.138,62.752 C60.138,68.43 63.504,72.17 68.332,72.17 C71.324,72.17 73.262,70.674 74.384,68.532 C74.316,69.008 74.248,69.756 74.248,70.164 C74.214,75.196 72.684,77.338 68.434,77.338 C66.36,77.338 64.864,76.624 63.606,75.162 C63.334,74.856 62.994,74.72 62.62,74.72 C62.28,74.72 61.906,74.856 61.634,75.06 C61.226,75.366 60.988,75.808 60.988,76.25 C60.988,76.522 61.09,76.76 61.26,76.998 C62.552,78.664 64.898,79.888 68.57,79.888 Z M68.74,69.688 C65.578,69.688 63.266,67.07 63.266,62.752 C63.266,58.366 65.306,55.544 68.774,55.544 C72.242,55.544 74.316,58.468 74.316,62.514 C74.316,66.73 72.208,69.688 68.74,69.688 Z" id="BeauticianBlog" fill="#A0A0A0" fill-rule="nonzero"></path>
                    <line x1="0.5" y1="20.5" x2="0.5" y2="65.5" id="Line" stroke="#979797" stroke-linecap="square"></line>
                </g>
                <g id="Laurini’s" fill="#151618" fill-rule="nonzero">
                    <path d="M52.5561523,92.9838867 C54.5043945,92.9838867 56.274821,92.8215332 57.8674316,92.4968262 C59.4600423,92.1721191 60.8825684,91.7623698 62.1350098,91.2675781 C63.3874512,90.7727865 64.4775391,90.2393392 65.4052734,89.6672363 C66.3330078,89.0951335 67.1061198,88.5539551 67.7246094,88.0437012 C68.343099,87.5334473 68.8069661,87.1005046 69.1162109,86.744873 C69.4254557,86.3892415 69.5955404,86.1959635 69.6264648,86.1650391 L69.6264648,86.1650391 L67.7246094,84.6806641 C65.9000651,86.4124349 64.0677897,87.6184896 62.2277832,88.2988281 C60.3877767,88.9791667 58.4781901,89.3193359 56.4990234,89.3193359 C55.1692708,89.3193359 53.6385091,89.1260579 51.9067383,88.739502 C50.1749674,88.352946 48.2963053,87.8736165 46.270752,87.3015137 C44.2451986,86.7294108 42.1036784,86.095459 39.8461914,85.3996582 C37.5887044,84.7038574 35.2848307,84.0467122 32.9345703,83.4282227 C35.3466797,81.4181315 37.6350911,79.1683757 39.7998047,76.6789551 C41.9645182,74.1895345 44.0673828,71.5377604 46.1083984,68.7236328 C50.4378255,67.764974 54.5198568,66.4274902 58.3544922,64.7111816 C62.1891276,62.994873 65.7145182,61.0388997 68.9306641,58.8432617 C72.1468099,56.6476237 75.0227865,54.2587077 77.5585938,51.6765137 C80.094401,49.0943197 82.2436523,46.4657389 84.0063477,43.7907715 C85.769043,41.115804 87.1142578,38.4408366 88.0419922,35.7658691 C88.9697266,33.0909017 89.4335938,30.5473633 89.4335938,28.1352539 C89.4335938,26.6508789 89.2325846,25.3520508 88.8305664,24.2387695 C88.4285482,23.1254883 87.8719076,22.205485 87.1606445,21.4787598 C86.4493815,20.7520345 85.6144206,20.2108561 84.6557617,19.8552246 C83.6971029,19.4995931 82.6611328,19.3217773 81.5478516,19.3217773 C78.7027995,19.3217773 76.0432943,20.0253092 73.5693359,21.432373 C71.0953776,22.8394368 68.7373861,24.7335612 66.4953613,27.1147461 C64.2533366,29.495931 62.0963542,32.271403 60.0244141,35.4411621 C57.952474,38.6109212 55.8959961,41.9584961 53.8549805,45.4838867 C51.8139648,49.0092773 49.7652181,52.6119792 47.7087402,56.2919922 C45.6522624,59.9720052 43.5262044,63.5283203 41.3305664,66.9609375 C39.9389648,67.1774089 38.5396322,67.3320312 37.1325684,67.4248047 C35.7255046,67.5175781 34.2952474,67.5639648 32.8417969,67.5639648 C29.2854818,67.5639648 25.8915202,67.1155599 22.6599121,66.21875 C19.428304,65.3219401 16.5909831,64.0153809 14.1479492,62.2990723 C11.7049154,60.5827637 9.75667318,58.4798991 8.30322266,55.9904785 C6.84977214,53.5010579 6.12304688,50.6791992 6.12304688,47.5249023 C6.12304688,44.7107747 6.65649414,42.0590007 7.72338867,39.5695801 C8.7902832,37.0801595 10.3210449,34.9077148 12.3156738,33.0522461 C14.3103027,31.1967773 16.7533366,29.7355957 19.6447754,28.6687012 C22.5362142,27.6018066 25.8064779,27.0683594 29.4555664,27.0683594 C31.5275065,27.0683594 33.4602865,27.238444 35.2539062,27.5786133 C37.047526,27.9187826 38.59375,28.2898763 39.8925781,28.6918945 C41.1914062,29.0939128 42.2119141,29.4727376 42.9541016,29.8283691 C43.6962891,30.1840007 44.0828451,30.3618164 44.1137695,30.3618164 L44.1137695,30.3618164 L45.3198242,28.2744141 C45.2270508,28.2434896 44.7631836,28.0270182 43.9282227,27.625 C43.0932617,27.2229818 41.9413249,26.8055013 40.4724121,26.3725586 C39.0034993,25.9396159 37.2639974,25.5375977 35.2539062,25.1665039 C33.2438151,24.7954102 31.0172526,24.6098633 28.5742188,24.6098633 C24.7086589,24.6098633 21.0904948,25.1278483 17.7197266,26.1638184 C14.3489583,27.1997884 11.4188639,28.6996257 8.92944336,30.6633301 C6.44002279,32.6270345 4.48404948,35.046875 3.06152344,37.9228516 C1.6389974,40.7988281 0.927734375,44.0922852 0.927734375,47.8032227 C0.927734375,50.9575195 1.61580404,53.9030762 2.99194336,56.6398926 C4.36808268,59.376709 6.37044271,61.7578939 8.99902344,63.7834473 C11.6276042,65.8090007 14.84375,67.4016113 18.6474609,68.5612793 C22.4511719,69.7209473 26.780599,70.3007812 31.6357422,70.3007812 C32.9654948,70.3007812 34.2797852,70.2621257 35.5786133,70.1848145 C36.8774414,70.1075033 38.1608073,69.9915365 39.4287109,69.8369141 C37.7587891,72.2799479 36.0424805,74.5683594 34.2797852,76.7021484 C32.5170898,78.8359375 30.6616211,80.7532552 28.7133789,82.4541016 C26.7032878,82.0211589 24.7241211,81.6655273 22.7758789,81.387207 C20.8276367,81.1088867 18.8948568,80.9697266 16.9775391,80.9697266 C12.586263,80.9697266 9.30826823,81.4954427 7.14355469,82.546875 C4.97884115,83.5983073 3.89648438,85.0981445 3.89648438,87.0463867 C3.89648438,88.5307617 4.56136068,89.7213542 5.89111328,90.6181641 C7.22086589,91.514974 9.13818359,91.9633789 11.6430664,91.9633789 C14.5808919,91.9633789 17.3795573,91.5381673 20.0390625,90.6877441 C22.6985677,89.837321 25.2498372,88.6699219 27.6928711,87.1855469 C29.7338867,87.8349609 31.8058268,88.4998372 33.9086914,89.1801758 C36.011556,89.8605143 38.1144206,90.486735 40.2172852,91.0588379 C42.3201497,91.6309408 44.399821,92.0948079 46.4562988,92.4504395 C48.5127767,92.806071 50.5460612,92.9838867 52.5561523,92.9838867 Z M48.3813477,65.4765625 C50.6079102,62.1676432 52.7416992,58.796875 54.7827148,55.3642578 C56.8237305,51.9316406 58.7874349,48.599528 60.6738281,45.3679199 C62.5602214,42.1363118 64.3924967,39.0902507 66.1706543,36.2297363 C67.9488118,33.369222 69.703776,30.8798014 71.4355469,28.7614746 C73.1673177,26.6431478 74.8836263,24.9654948 76.5844727,23.7285156 C78.285319,22.4915365 80.0016276,21.8730469 81.7333984,21.8730469 C82.4446615,21.8730469 83.1172689,21.9812826 83.7512207,22.1977539 C84.3851725,22.4142253 84.9418132,22.7698568 85.4211426,23.2646484 C85.900472,23.7594401 86.2792969,24.401123 86.5576172,25.1896973 C86.8359375,25.9782715 86.9750977,26.9446615 86.9750977,28.0888672 C86.9750977,30.2845052 86.5421549,32.5806478 85.6762695,34.9772949 C84.8103841,37.3739421 83.5656738,39.7937826 81.9421387,42.2368164 C80.3186035,44.6798503 78.3548991,47.0687663 76.0510254,49.4035645 C73.7471517,51.7383626 71.1649577,53.9262695 68.3044434,55.9672852 C65.443929,58.0083008 62.3360189,59.8483073 58.9807129,61.4873047 C55.6254069,63.1263021 52.0922852,64.4560547 48.3813477,65.4765625 Z M11.3647461,89.5512695 C10.3133138,89.5512695 9.46289062,89.4662272 8.81347656,89.2961426 C8.1640625,89.1260579 7.65380859,88.9173177 7.28271484,88.6699219 C6.91162109,88.422526 6.65649414,88.1519368 6.51733398,87.8581543 C6.37817383,87.5643717 6.30859375,87.2937826 6.30859375,87.0463867 C6.30859375,86.2423503 6.7956543,85.5310872 7.76977539,84.9125977 C8.74389648,84.2941081 10.2823893,83.9848633 12.3852539,83.9848633 C14.1479492,83.9848633 15.9802246,84.1704102 17.8820801,84.5415039 C19.7839355,84.9125977 21.7553711,85.3919271 23.7963867,85.9794922 C21.879069,87.0927734 19.8999023,87.96639 17.8588867,88.6003418 C15.8178711,89.2342936 13.6531576,89.5512695 11.3647461,89.5512695 Z M84.5629883,88.6699219 C85.6762695,88.6699219 86.8436686,88.5230306 88.0651855,88.229248 C89.2867025,87.9354655 90.5546061,87.4174805 91.8688965,86.675293 C93.1831868,85.9331055 94.5438639,84.9280599 95.9509277,83.6601562 C97.3579915,82.3922526 98.8346354,80.7841797 100.380859,78.8359375 C100.31901,79.0833333 100.280355,79.4157715 100.264893,79.833252 C100.24943,80.2507324 100.241699,80.5213216 100.241699,80.6450195 C100.241699,82.4077148 100.674642,83.8457031 101.540527,84.9589844 C102.406413,86.0722656 103.76709,86.6289062 105.622559,86.6289062 C106.890462,86.6289062 108.127441,86.3815104 109.333496,85.8867188 C110.539551,85.3919271 111.691488,84.7270508 112.789307,83.8920898 C113.887126,83.0571289 114.930827,82.0984701 115.92041,81.0161133 C116.909993,79.9337565 117.829997,78.8127441 118.68042,77.6530762 C119.530843,76.4934082 120.311686,75.3414714 121.022949,74.1972656 C121.734212,73.0530599 122.352702,71.9861654 122.878418,70.996582 L122.878418,70.996582 L121.208496,69.6977539 C120.775553,70.3780924 120.249837,71.2053223 119.631348,72.1794434 C119.012858,73.1535645 118.324788,74.1740723 117.567139,75.2409668 C116.809489,76.3078613 115.997721,77.3670247 115.131836,78.418457 C114.265951,79.4698893 113.376872,80.4130859 112.4646,81.2480469 C111.552327,82.0830078 110.624593,82.7633464 109.681396,83.2890625 C108.7382,83.8147786 107.818197,84.0776367 106.921387,84.0776367 C106.302897,84.0776367 105.800374,83.9307454 105.413818,83.6369629 C105.027262,83.3431803 104.833984,82.7014974 104.833984,81.7119141 C104.833984,80.7223307 105.058187,79.5085449 105.506592,78.0705566 C105.954997,76.6325684 106.5271,75.1018066 107.2229,73.4782715 C107.918701,71.8547363 108.691813,70.1925456 109.542236,68.4916992 C110.39266,66.7908529 111.235352,65.1595866 112.070312,63.5979004 C112.905273,62.0362142 113.686117,60.605957 114.412842,59.3071289 C115.139567,58.0083008 115.703939,56.9568685 116.105957,56.152832 L116.105957,56.152832 L114.621582,55.503418 C113.910319,56.3074544 113.214518,57.0960286 112.53418,57.8691406 C111.853841,58.6422526 111.204427,59.4153646 110.585938,60.1884766 C110.276693,58.2402344 109.395345,56.794515 107.941895,55.8513184 C106.488444,54.9081217 104.339193,54.4365234 101.494141,54.4365234 C100.226237,54.4365234 98.7882487,54.6375326 97.1801758,55.0395508 C95.5721029,55.441569 93.8789876,56.1141764 92.1008301,57.057373 C90.3226725,58.0005697 88.5135905,59.2452799 86.673584,60.7915039 C84.8335775,62.3377279 83.063151,64.2395833 81.3623047,66.4970703 C79.3522135,69.125651 77.9528809,71.576416 77.1643066,73.8493652 C76.3757324,76.1223145 75.9814453,78.1401367 75.9814453,79.902832 C75.9814453,81.3253581 76.2056478,82.5777995 76.6540527,83.6601562 C77.1024577,84.742513 77.7209473,85.6547852 78.5095215,86.3969727 C79.2980957,87.1391602 80.2103678,87.7035319 81.2463379,88.0900879 C82.2823079,88.4766439 83.3878581,88.6699219 84.5629883,88.6699219 Z M85.769043,86.2114258 C84.284668,86.2114258 83.1404622,85.7320964 82.3364258,84.7734375 C81.5323893,83.8147786 81.1303711,82.4541016 81.1303711,80.6914062 C81.1303711,78.6194661 81.7102051,76.2923991 82.869873,73.7102051 C84.029541,71.1280111 85.6762695,68.5535482 87.8100586,65.9868164 C89.2325846,64.2859701 90.6551107,62.863444 92.0776367,61.7192383 C93.5001628,60.5750326 94.8840332,59.6550293 96.229248,58.9592285 C97.5744629,58.2634277 98.8423665,57.7686361 100.032959,57.4748535 C101.223551,57.181071 102.298177,57.0341797 103.256836,57.0341797 C104.586589,57.0341797 105.622559,57.2661133 106.364746,57.7299805 C107.106934,58.1938477 107.648112,58.7427572 107.988281,59.376709 C108.328451,60.0106608 108.537191,60.6368815 108.614502,61.2553711 C108.691813,61.8738607 108.730469,62.3222656 108.730469,62.6005859 C108.266602,63.2809245 107.725423,64.1158854 107.106934,65.1054688 C106.488444,66.0950521 105.854492,67.123291 105.205078,68.1901855 C104.555664,69.2570801 103.937174,70.2930501 103.349609,71.2980957 C102.762044,72.3031413 102.267253,73.1303711 101.865234,73.7797852 C100.751953,75.2023112 99.6077474,76.6480306 98.4326172,78.1169434 C97.257487,79.5858561 96.0205078,80.9233398 94.7216797,82.1293945 C93.4228516,83.3354492 92.03125,84.3173014 90.546875,85.0749512 C89.0625,85.8326009 87.4698893,86.2114258 85.769043,86.2114258 Z M126.218262,88.3452148 C127.609863,88.3452148 128.986003,88.0591634 130.34668,87.4870605 C131.707357,86.9149577 133.075765,86.1263835 134.451904,85.1213379 C135.828044,84.1162923 137.211914,82.9102376 138.603516,81.5031738 C139.995117,80.09611 141.402181,78.5576172 142.824707,76.8876953 C142.329915,77.9700521 141.95109,78.9905599 141.688232,79.9492188 C141.425374,80.9078776 141.293945,81.7892253 141.293945,82.5932617 C141.293945,83.2736003 141.417643,83.9230143 141.665039,84.5415039 C141.912435,85.1599935 142.252604,85.7011719 142.685547,86.1650391 C143.11849,86.6289062 143.651937,87 144.285889,87.2783203 C144.91984,87.5566406 145.638835,87.6958008 146.442871,87.6958008 C147.741699,87.6958008 149.05599,87.3324382 150.385742,86.6057129 C151.715495,85.8789876 152.998861,84.9512533 154.23584,83.8225098 C155.472819,82.6937663 156.647949,81.449056 157.76123,80.0883789 C158.874512,78.7277018 159.864095,77.4288737 160.72998,76.1918945 C161.595866,74.9549154 162.322591,73.8570964 162.910156,72.8984375 C163.497721,71.9397786 163.884277,71.3058268 164.069824,70.996582 L164.069824,70.996582 L162.399902,69.6977539 C161.317546,71.3058268 160.10376,73.0298665 158.758545,74.869873 C157.41333,76.7098796 156.037191,78.4029948 154.630127,79.9492188 C153.223063,81.4954427 151.831462,82.7788086 150.455322,83.7993164 C149.079183,84.8198242 147.81901,85.3146159 146.674805,85.2836914 C146.272786,85.2836914 145.979004,85.1445312 145.793457,84.8662109 C145.60791,84.5878906 145.515137,84.2322591 145.515137,83.7993164 C145.515137,82.7478841 145.893962,81.3253581 146.651611,79.5317383 C147.409261,77.7381185 148.429769,75.6275228 149.713135,73.1999512 C150.996501,70.7723796 152.465413,68.0355632 154.119873,64.989502 C155.774333,61.9434408 157.498372,58.6577148 159.291992,55.1323242 L159.291992,55.1323242 L155.905762,53.4624023 C155.039876,55.0086263 153.918864,56.8795573 152.542725,59.0751953 C151.166585,61.2708333 149.643555,63.574707 147.973633,65.9868164 C146.303711,68.3989258 144.533285,70.7878418 142.662354,73.1535645 C140.791423,75.5192871 138.920492,77.6453451 137.049561,79.5317383 C135.17863,81.4181315 133.354085,82.9488932 131.575928,84.1240234 C129.79777,85.2991536 128.166504,85.8867188 126.682129,85.8867188 C125.321452,85.8867188 124.401449,85.4383138 123.922119,84.5415039 C123.44279,83.644694 123.203125,82.5623372 123.203125,81.2944336 C123.203125,79.4080404 123.620605,77.3592936 124.455566,75.1481934 C125.290527,72.9370931 126.318766,70.7259928 127.540283,68.5148926 C128.7618,66.3037923 130.060628,64.1622721 131.436768,62.090332 C132.812907,60.0183919 134.057617,58.1629232 135.170898,56.5239258 L135.170898,56.5239258 L133.17627,55.1323242 C131.599121,56.6166992 129.93693,58.3175456 128.189697,60.2348633 C126.442464,62.152181 124.849854,64.1777344 123.411865,66.3115234 C121.973877,68.4453125 120.783285,70.6409505 119.840088,72.8984375 C118.896891,75.1559245 118.425293,77.3515625 118.425293,79.4853516 C118.425293,80.8460286 118.61084,82.0752767 118.981934,83.1730957 C119.353027,84.2709147 119.886475,85.1986491 120.582275,85.9562988 C121.278076,86.7139486 122.097575,87.3015137 123.040771,87.7189941 C123.983968,88.1364746 125.043132,88.3452148 126.218262,88.3452148 Z M173.439941,89.1801758 C175.01709,89.1801758 176.501465,88.8245443 177.893066,88.1132812 C179.284668,87.4020182 180.575765,86.4897461 181.766357,85.3764648 C182.95695,84.2631836 184.054769,83.0107422 185.059814,81.6191406 C186.06486,80.2275391 186.984863,78.8591309 187.819824,77.513916 C188.654785,76.1687012 189.389242,74.9162598 190.023193,73.7565918 C190.657145,72.5969238 191.206055,71.6769206 191.669922,70.996582 L191.669922,70.996582 L189.953613,69.6977539 C189.396973,70.5636393 188.763021,71.576416 188.051758,72.736084 C187.340495,73.895752 186.567383,75.1095378 185.732422,76.3774414 C184.897461,77.6453451 184.023844,78.8900553 183.111572,80.1115723 C182.1993,81.3330892 181.256104,82.4231771 180.281982,83.3818359 C179.307861,84.3404948 178.318278,85.1213379 177.313232,85.7243652 C176.308187,86.3273926 175.29541,86.6289062 174.274902,86.6289062 C173.965658,86.6289062 173.648682,86.5979818 173.323975,86.5361328 C172.999268,86.4742839 172.697754,86.3505859 172.419434,86.1650391 C172.141113,85.9794922 171.916911,85.708903 171.746826,85.3532715 C171.576742,84.99764 171.491699,84.5260417 171.491699,83.9384766 C171.491699,83.1653646 171.599935,82.3613281 171.816406,81.5263672 C172.032878,80.6914062 172.318929,79.8564453 172.674561,79.0214844 C173.030192,78.1865234 173.43221,77.3592936 173.880615,76.5397949 C174.32902,75.7202962 174.785156,74.9085286 175.249023,74.1044922 C176.022135,72.7747396 176.663818,71.6073405 177.174072,70.6022949 C177.684326,69.5972493 178.086344,68.7236328 178.380127,67.9814453 C178.67391,67.2392578 178.88265,66.605306 179.006348,66.0795898 C179.130046,65.5538737 179.191895,65.1054688 179.191895,64.734375 C179.191895,64.3632812 179.153239,64.0617676 179.075928,63.829834 C178.998617,63.5979004 178.797607,63.3041178 178.4729,62.9484863 C178.148193,62.5928548 177.630208,62.1135254 176.918945,61.510498 C176.207682,60.9074707 175.233561,60.0493164 173.996582,58.9360352 C173.656413,58.6577148 173.43221,58.3562012 173.323975,58.0314941 C173.215739,57.7067871 173.161621,57.374349 173.161621,57.0341797 C173.161621,56.5703125 173.231201,56.1373698 173.370361,55.7353516 C173.509521,55.3333333 173.610026,55.0395508 173.671875,54.8540039 L173.671875,54.8540039 L172.32666,54.1582031 L162.399902,69.6977539 L164.069824,70.996582 C164.842936,69.6977539 165.646973,68.3757324 166.481934,67.0305176 C167.316895,65.6853027 168.090007,64.4715169 168.80127,63.3891602 C169.605306,62.1212565 170.39388,60.8688151 171.166992,59.6318359 C171.445312,60.0957031 171.793213,60.4899902 172.210693,60.8146973 C172.628174,61.1394043 173.030192,61.4486491 173.416748,61.7424316 C173.803304,62.0362142 174.128011,62.3377279 174.390869,62.6469727 C174.653727,62.9562174 174.785156,63.311849 174.785156,63.7138672 C174.785156,64.2705078 174.599609,64.9353841 174.228516,65.7084961 C173.857422,66.4816081 173.269857,67.509847 172.46582,68.7932129 C171.661784,70.0765788 170.857747,71.4913737 170.053711,73.0375977 C169.249674,74.5838216 168.546143,76.1841634 167.943115,77.838623 C167.340088,79.4930827 167.038574,81.0779622 167.038574,82.5932617 C167.038574,83.706543 167.208659,84.6729329 167.548828,85.4924316 C167.888997,86.3119303 168.352865,87 168.94043,87.5566406 C169.527995,88.1132812 170.208333,88.5230306 170.981445,88.7858887 C171.754557,89.0487467 172.574056,89.1801758 173.439941,89.1801758 Z M205.771484,51.375 C206.359049,51.375 206.946615,51.2049154 207.53418,50.8647461 C208.121745,50.5245768 208.655192,50.0916341 209.134521,49.565918 C209.613851,49.0402018 210.008138,48.4449056 210.317383,47.7800293 C210.626628,47.115153 210.78125,46.4734701 210.78125,45.8549805 C210.78125,45.2674154 210.549316,44.726237 210.085449,44.2314453 C209.621582,43.7366536 209.064941,43.4892578 208.415527,43.4892578 C207.735189,43.4892578 207.132161,43.7057292 206.606445,44.1386719 C206.080729,44.5716146 205.632324,45.0895996 205.26123,45.692627 C204.890137,46.2956543 204.611816,46.9373372 204.42627,47.6176758 C204.240723,48.2980143 204.147949,48.8855794 204.147949,49.3803711 C204.147949,49.9370117 204.287109,50.40861 204.56543,50.795166 C204.84375,51.181722 205.245768,51.375 205.771484,51.375 Z M191.994629,86.6289062 C193.973796,86.6289062 195.79834,86.1186523 197.468262,85.0981445 C199.138184,84.0776367 200.668945,82.7865397 202.060547,81.2248535 C203.452148,79.6631673 204.712321,77.9700521 205.841064,76.1455078 C206.969808,74.3209635 207.982585,72.6046549 208.879395,70.996582 L208.879395,70.996582 L207.209473,69.6977539 C206.065267,71.4604492 204.921061,73.2076823 203.776855,74.9394531 C202.63265,76.671224 201.465251,78.2097168 200.274658,79.5549316 C199.084066,80.9001465 197.885742,81.9902344 196.679688,82.8251953 C195.473633,83.6601562 194.236654,84.0776367 192.96875,84.0776367 C192.288411,84.0776367 191.762695,83.9152832 191.391602,83.5905762 C191.020508,83.2658691 190.834961,82.6551107 190.834961,81.7583008 C190.834961,80.7687174 191.051432,79.5626628 191.484375,78.1401367 C191.917318,76.7176107 192.481689,75.1945801 193.17749,73.5710449 C193.873291,71.9475098 194.654134,70.2775879 195.52002,68.5612793 C196.385905,66.8449707 197.236328,65.2059733 198.071289,63.6442871 C198.90625,62.0826009 199.687093,60.6446126 200.413818,59.3303223 C201.140544,58.0160319 201.704915,56.9568685 202.106934,56.152832 L202.106934,56.152832 L200.622559,55.503418 C199.200033,57.1733398 197.646077,59.0288086 195.960693,61.0698242 C194.275309,63.1108398 192.713623,65.2368978 191.275635,67.447998 C189.837646,69.6590983 188.639323,71.8933919 187.680664,74.1508789 C186.722005,76.4083659 186.242676,78.5730794 186.242676,80.6450195 C186.242676,82.4077148 186.737467,83.8457031 187.727051,84.9589844 C188.716634,86.0722656 190.13916,86.6289062 191.994629,86.6289062 Z M237.175293,90.0151367 C238.628743,90.0151367 240.074463,89.5976562 241.512451,88.7626953 C242.950439,87.9277344 244.349772,86.868571 245.710449,85.5852051 C247.071126,84.3018392 248.346761,82.8947754 249.537354,81.3640137 C250.727946,79.833252 251.802572,78.3643392 252.76123,76.9572754 C253.719889,75.5502116 254.523926,74.2977702 255.17334,73.1999512 C255.822754,72.1021322 256.271159,71.3676758 256.518555,70.996582 L256.518555,70.996582 L254.848633,69.6977539 C253.642578,71.5532227 252.297363,73.5169271 250.812988,75.5888672 C249.328613,77.6608073 247.836507,79.578125 246.33667,81.3408203 C244.836833,83.1035156 243.360189,84.5646973 241.906738,85.7243652 C240.453288,86.8840332 239.138997,87.4638672 237.963867,87.4638672 C237.592773,87.4638672 237.252604,87.3401693 236.943359,87.0927734 C236.634115,86.8453776 236.479492,86.3660482 236.479492,85.6547852 C236.479492,84.7270508 236.711426,83.6988118 237.175293,82.5700684 C237.63916,81.4413249 238.226725,80.2584635 238.937988,79.0214844 C239.649251,77.7845052 240.406901,76.5011393 241.210938,75.1713867 C242.014974,73.8416341 242.772624,72.4886882 243.483887,71.1125488 C244.19515,69.7364095 244.782715,68.3602702 245.246582,66.9841309 C245.710449,65.6079915 245.942383,64.2550456 245.942383,62.925293 C245.942383,61.2862956 245.702718,59.9488118 245.223389,58.9128418 C244.744059,57.8768717 244.164225,57.0651042 243.483887,56.4775391 C242.803548,55.889974 242.076823,55.4879557 241.303711,55.2714844 C240.530599,55.055013 239.85026,54.9467773 239.262695,54.9467773 C238.582357,54.9467773 237.824707,55.055013 236.989746,55.2714844 C236.154785,55.4879557 235.242513,55.8513184 234.25293,56.3615723 C233.263346,56.8718262 232.18099,57.5598958 231.005859,58.4257812 C229.830729,59.2916667 228.562826,60.3894857 227.202148,61.7192383 C227.387695,60.8533529 227.480469,60.0183919 227.480469,59.2143555 C227.480469,58.1938477 227.341309,57.2970378 227.062988,56.5239258 C226.784668,55.7508138 226.405843,55.0936686 225.926514,54.5524902 C225.447184,54.0113118 224.890544,53.6015625 224.256592,53.3232422 C223.62264,53.0449219 222.965495,52.9057617 222.285156,52.9057617 C221.017253,52.9057617 219.818929,53.3155111 218.690186,54.1350098 C217.561442,54.9545085 216.401774,56.1064453 215.211182,57.5908203 C214.020589,59.0751953 212.78361,60.8456217 211.500244,62.9020996 C210.216878,64.9585775 208.786621,67.2237956 207.209473,69.6977539 L207.209473,69.6977539 L208.879395,70.996582 C209.312337,70.347168 209.853516,69.4967448 210.50293,68.4453125 C211.152344,67.3938802 211.848145,66.280599 212.590332,65.1054688 C213.33252,63.9303385 214.113363,62.7474772 214.932861,61.5568848 C215.75236,60.3662923 216.564128,59.2993978 217.368164,58.3562012 C218.172201,57.4130046 218.953044,56.6398926 219.710693,56.0368652 C220.468343,55.4338379 221.140951,55.1323242 221.728516,55.1323242 C222.285156,55.1323242 222.718099,55.2637533 223.027344,55.5266113 C223.336589,55.7894694 223.491211,56.3383789 223.491211,57.1733398 C223.491211,57.9155273 223.321126,58.8973796 222.980957,60.1188965 C222.640788,61.3404134 222.022298,62.8789062 221.125488,64.734375 C220.506999,65.9713542 219.842122,67.2392578 219.130859,68.5380859 C218.419596,69.8369141 217.669678,71.1280111 216.881104,72.411377 C216.092529,73.6947428 215.296224,74.9394531 214.492188,76.1455078 C213.688151,77.3515625 212.899577,78.480306 212.126465,79.5317383 L212.126465,79.5317383 L206.699219,87 L210.78125,88.6699219 C211.152344,88.2060547 211.569824,87.6571452 212.033691,87.0231934 C212.497559,86.3892415 212.99235,85.7243652 213.518066,85.0285645 C214.043783,84.3327637 214.569499,83.6292318 215.095215,82.9179688 C215.620931,82.2067057 216.146647,81.5109049 216.672363,80.8305664 C217.878418,79.253418 219.115397,77.6144206 220.383301,75.9135742 C222.609863,72.9757487 224.674072,70.3548991 226.575928,68.0510254 C228.477783,65.7471517 230.232747,63.8066406 231.84082,62.2294922 C233.448893,60.6523438 234.902344,59.4540202 236.201172,58.6345215 C237.5,57.8150228 238.644206,57.4052734 239.633789,57.4052734 C240.561523,57.4052734 241.280518,57.7299805 241.790771,58.3793945 C242.301025,59.0288086 242.556152,59.8328451 242.556152,60.7915039 C242.556152,61.6264648 242.285563,62.6237793 241.744385,63.7834473 C241.203206,64.9431152 240.530599,66.2032878 239.726562,67.5639648 C238.922526,68.9246419 238.041178,70.3548991 237.08252,71.8547363 C236.123861,73.3545736 235.242513,74.8466797 234.438477,76.3310547 C233.63444,77.8154297 232.961833,79.2611491 232.420654,80.6682129 C231.879476,82.0752767 231.608887,83.3818359 231.608887,84.5878906 C231.608887,85.3300781 231.748047,86.03361 232.026367,86.6984863 C232.304688,87.3633626 232.683512,87.9431966 233.162842,88.4379883 C233.642171,88.9327799 234.222005,89.3193359 234.902344,89.5976562 C235.582682,89.8759766 236.340332,90.0151367 237.175293,90.0151367 Z M270.666504,51.375 C271.254069,51.375 271.841634,51.2049154 272.429199,50.8647461 C273.016764,50.5245768 273.550212,50.0916341 274.029541,49.565918 C274.50887,49.0402018 274.903158,48.4449056 275.212402,47.7800293 C275.521647,47.115153 275.67627,46.4734701 275.67627,45.8549805 C275.67627,45.2674154 275.444336,44.726237 274.980469,44.2314453 C274.516602,43.7366536 273.959961,43.4892578 273.310547,43.4892578 C272.630208,43.4892578 272.027181,43.7057292 271.501465,44.1386719 C270.975749,44.5716146 270.527344,45.0895996 270.15625,45.692627 C269.785156,46.2956543 269.506836,46.9373372 269.321289,47.6176758 C269.135742,48.2980143 269.042969,48.8855794 269.042969,49.3803711 C269.042969,49.9370117 269.182129,50.40861 269.460449,50.795166 C269.73877,51.181722 270.140788,51.375 270.666504,51.375 Z M256.889648,86.6289062 C258.868815,86.6289062 260.693359,86.1186523 262.363281,85.0981445 C264.033203,84.0776367 265.563965,82.7865397 266.955566,81.2248535 C268.347168,79.6631673 269.60734,77.9700521 270.736084,76.1455078 C271.864827,74.3209635 272.877604,72.6046549 273.774414,70.996582 L273.774414,70.996582 L272.104492,69.6977539 C270.960286,71.4604492 269.816081,73.2076823 268.671875,74.9394531 C267.527669,76.671224 266.36027,78.2097168 265.169678,79.5549316 C263.979085,80.9001465 262.780762,81.9902344 261.574707,82.8251953 C260.368652,83.6601562 259.131673,84.0776367 257.86377,84.0776367 C257.183431,84.0776367 256.657715,83.9152832 256.286621,83.5905762 C255.915527,83.2658691 255.72998,82.6551107 255.72998,81.7583008 C255.72998,80.7687174 255.946452,79.5626628 256.379395,78.1401367 C256.812337,76.7176107 257.376709,75.1945801 258.07251,73.5710449 C258.768311,71.9475098 259.549154,70.2775879 260.415039,68.5612793 C261.280924,66.8449707 262.131348,65.2059733 262.966309,63.6442871 C263.80127,62.0826009 264.582113,60.6446126 265.308838,59.3303223 C266.035563,58.0160319 266.599935,56.9568685 267.001953,56.152832 L267.001953,56.152832 L265.517578,55.503418 C264.095052,57.1733398 262.541097,59.0288086 260.855713,61.0698242 C259.170329,63.1108398 257.608643,65.2368978 256.170654,67.447998 C254.732666,69.6590983 253.534342,71.8933919 252.575684,74.1508789 C251.617025,76.4083659 251.137695,78.5730794 251.137695,80.6450195 C251.137695,82.4077148 251.632487,83.8457031 252.62207,84.9589844 C253.611654,86.0722656 255.03418,86.6289062 256.889648,86.6289062 Z M291.818848,32.8666992 C292.901204,32.4337565 293.968099,31.884847 295.019531,31.2199707 C296.070964,30.5550944 297.01416,29.8051758 297.849121,28.9702148 C298.684082,28.1352539 299.356689,27.2461751 299.866943,26.3029785 C300.377197,25.3597819 300.632324,24.3933919 300.632324,23.4038086 C300.632324,22.5069987 300.315348,21.7184245 299.681396,21.0380859 C299.047445,20.3577474 298.251139,20.0175781 297.29248,20.0175781 C296.395671,20.0175781 295.607096,20.334554 294.926758,20.9685059 C294.246419,21.6024577 293.90625,22.398763 293.90625,23.3574219 C293.90625,24.0686849 294.122721,24.7412923 294.555664,25.3752441 C294.988607,26.009196 295.69987,26.4344076 296.689453,26.6508789 C296.25651,27.4549154 295.498861,28.2898763 294.416504,29.1557617 C293.334147,30.0216471 292.174479,30.7638346 290.9375,31.3823242 L290.9375,31.3823242 L291.818848,32.8666992 Z M289.638672,89.1801758 C292.236328,89.1801758 294.694824,88.6467285 297.01416,87.579834 C299.333496,86.5129395 301.49821,85.1213379 303.508301,83.4050293 C305.518392,81.6887207 307.36613,79.7559408 309.051514,77.6066895 C310.736898,75.4574382 312.244466,73.2849935 313.574219,71.0893555 L313.574219,71.0893555 L311.99707,69.6977539 C309.64681,73.4396159 307.312012,76.5243327 304.992676,78.9519043 C302.67334,81.3794759 300.307617,83.2426758 297.895508,84.5415039 C299.070638,83.1189779 300.013835,81.4026693 300.725098,79.3925781 C301.436361,77.382487 301.791992,75.063151 301.791992,72.4345703 C301.791992,70.6409505 301.629639,68.9014486 301.304932,67.2160645 C300.980225,65.5306803 300.632324,63.9689941 300.26123,62.5310059 C299.890137,61.0930176 299.542236,59.8173828 299.217529,58.7041016 C298.892822,57.5908203 298.730469,56.7094727 298.730469,56.0600586 C298.730469,55.2869466 298.815511,54.6220703 298.985596,54.0654297 C299.15568,53.5087891 299.356689,53.0217285 299.588623,52.604248 C299.820557,52.1867676 300.060221,51.8156738 300.307617,51.4909668 C300.555013,51.1662598 300.756022,50.8647461 300.910645,50.5864258 L300.910645,50.5864258 L299.055176,49.0556641 C297.416178,51.3440755 295.823568,53.7020671 294.277344,56.1296387 C292.73112,58.5572103 291.347249,60.7683105 290.125732,62.7629395 C288.904215,64.7575684 287.922363,66.4042969 287.180176,67.703125 C286.437988,69.0019531 286.051432,69.6668294 286.020508,69.6977539 L286.020508,69.6977539 L287.69043,70.996582 C287.69043,70.9656576 287.852783,70.6796061 288.17749,70.1384277 C288.502197,69.5972493 288.919678,68.9091797 289.429932,68.0742188 C289.940186,67.2392578 290.512288,66.3115234 291.14624,65.2910156 C291.780192,64.2705078 292.414144,63.2654622 293.048096,62.2758789 C293.682048,61.2862956 294.277344,60.3740234 294.833984,59.5390625 C295.390625,58.7041016 295.869954,58.0701497 296.271973,57.637207 L296.271973,57.637207 L296.271973,57.7299805 C296.271973,57.9773763 296.310628,58.5108236 296.387939,59.3303223 C296.465251,60.149821 296.550293,61.1084798 296.643066,62.2062988 C296.73584,63.3041178 296.820882,64.4560547 296.898193,65.6621094 C296.975505,66.8681641 297.01416,67.9659831 297.01416,68.9555664 C297.01416,69.9451497 296.952311,71.0429688 296.828613,72.2490234 C296.704915,73.4550781 296.496175,74.6920573 296.202393,75.9599609 C295.90861,77.2278646 295.514323,78.4571126 295.019531,79.6477051 C294.52474,80.8382975 293.921712,81.8974609 293.210449,82.8251953 C292.499186,83.7529297 291.664225,84.5028483 290.705566,85.0749512 C289.746908,85.647054 288.649089,85.9331055 287.412109,85.9331055 C286.484375,85.9331055 285.703532,85.7784831 285.06958,85.4692383 C284.435628,85.1599935 283.933105,84.804362 283.562012,84.4023438 C283.190918,84.0003255 282.920329,83.5905762 282.750244,83.1730957 C282.58016,82.7556152 282.495117,82.4541016 282.495117,82.2685547 L282.495117,82.2685547 L280.825195,82.5932617 C281.196289,84.7888997 282.178141,86.4356283 283.770752,87.5334473 C285.363363,88.6312663 287.319336,89.1801758 289.638672,89.1801758 Z"></path>
                </g>
            </g>
        </g>
    </g>
</svg>